<svg width="1386" height="218" viewBox="0 0 1386 218" fill="none" xmlns="http://www.w3.org/2000/svg">
<path d="M49.086 2.42399H0V214.524H33.33V134.835H49.086C82.416 134.835 98.778 116.352 98.778 82.416V54.843C98.778 20.907 82.416 2.42399 49.086 2.42399ZM49.086 32.724C59.691 32.724 65.448 37.572 65.448 52.722V84.537C65.448 99.687 59.691 104.535 49.086 104.535H33.33V32.724H49.086Z" fill="white"/>
<path d="M112.702 2.42399V163.923C112.702 197.859 129.67 217.251 162.394 217.251C195.118 217.251 212.086 197.859 212.086 163.923V2.42399H180.574V166.044C180.574 181.194 173.908 186.648 163.303 186.648C152.698 186.648 146.032 181.194 146.032 166.044V2.42399H112.702Z" fill="white"/>
<path d="M230.701 53.328C230.701 113.928 295.846 122.109 295.846 165.741C295.846 180.891 289.18 186.345 278.575 186.345C267.97 186.345 261.304 180.891 261.304 165.741V150.591H229.792V163.62C229.792 197.556 246.76 216.948 279.484 216.948C312.208 216.948 329.176 197.556 329.176 163.62C329.176 103.02 264.031 94.839 264.031 51.207C264.031 36.057 270.091 30.3 280.696 30.3C291.301 30.3 297.361 36.057 297.361 51.207V59.994H328.873V53.328C328.873 19.392 312.208 0 279.787 0C247.366 0 230.701 19.392 230.701 53.328Z" fill="white"/>
<path d="M381.602 123.624H419.477V214.524H453.413V2.42399H419.477V93.324H381.602V2.42399H348.272V214.524H381.602V123.624Z" fill="white"/>
<path d="M526.666 2.42399H477.58V214.524H510.91V134.835H526.666C559.996 134.835 576.358 116.352 576.358 82.416V54.843C576.358 20.907 559.996 2.42399 526.666 2.42399ZM526.666 32.724C537.271 32.724 543.028 37.572 543.028 52.722V84.537C543.028 99.687 537.271 104.535 526.666 104.535H510.91V32.724H526.666Z" fill="white"/>
<path d="M590.282 2.42399V163.923C590.282 197.859 607.25 217.251 639.974 217.251C672.698 217.251 689.666 197.859 689.666 163.923V2.42399H658.154V166.044C658.154 181.194 651.488 186.648 640.883 186.648C630.278 186.648 623.612 181.194 623.612 166.044V2.42399H590.282Z" fill="white"/>
<path d="M712.523 214.524H800.696V184.224H745.853V2.42399H712.523V214.524Z" fill="white"/>
<path d="M815.2 214.524H903.373V184.224H848.53V2.42399H815.2V214.524Z" fill="white"/>
<path d="M917.877 214.524H970.599C1003.93 214.524 1020.29 196.041 1020.29 162.105V54.843C1020.29 20.907 1003.93 2.42399 970.599 2.42399H917.877V214.524ZM969.993 32.724C980.598 32.724 986.961 38.178 986.961 53.328V163.62C986.961 178.77 980.598 184.224 969.993 184.224H951.207V32.724H969.993Z" fill="white"/>
<path d="M1072.17 51.207C1072.17 36.057 1078.83 30.3 1089.44 30.3C1100.04 30.3 1106.71 36.057 1106.71 51.207V165.741C1106.71 180.891 1100.04 186.648 1089.44 186.648C1078.83 186.648 1072.17 180.891 1072.17 165.741V51.207ZM1038.84 163.62C1038.84 197.556 1056.71 216.948 1089.44 216.948C1122.16 216.948 1140.04 197.556 1140.04 163.62V53.328C1140.04 19.392 1122.16 0 1089.44 0C1056.71 0 1038.84 19.392 1038.84 53.328V163.62Z" fill="white"/>
<path d="M1192.3 51.207C1192.3 36.057 1198.97 30.3 1209.57 30.3C1220.18 30.3 1226.84 36.057 1226.84 51.207V165.741C1226.84 180.891 1220.18 186.648 1209.57 186.648C1198.97 186.648 1192.3 180.891 1192.3 165.741V51.207ZM1158.97 163.62C1158.97 197.556 1176.85 216.948 1209.57 216.948C1242.3 216.948 1260.17 197.556 1260.17 163.62V53.328C1260.17 19.392 1242.3 0 1209.57 0C1176.85 0 1158.97 19.392 1158.97 53.328V163.62Z" fill="white"/>
<path d="M1385.46 214.524C1382.12 206.646 1381.82 199.071 1381.82 188.769V156.045C1381.82 133.926 1376.37 117.867 1359.7 110.898C1374.55 103.929 1381.52 89.688 1381.52 67.872V51.207C1381.52 18.483 1366.67 2.42399 1332.13 2.42399H1281.83V214.524H1315.16V128.169H1326.68C1341.83 128.169 1348.49 135.441 1348.49 155.136V188.466C1348.49 205.737 1349.7 209.07 1351.52 214.524H1385.46ZM1331.22 32.724C1343.04 32.724 1348.19 39.39 1348.19 54.54V75.447C1348.19 92.415 1340.61 97.869 1328.19 97.869H1315.16V32.724H1331.22Z" fill="white"/>
</svg>
