<?xml version="1.0" encoding="UTF-8"?>
<svg id="Layer_1" data-name="Layer 1" xmlns="http://www.w3.org/2000/svg" viewBox="0 0 126.58 226.08">
  <path d="m116.36,218.81c-3.34-7.88-3.64-15.45-3.64-25.76v-32.72c0-22.12-5.45-38.18-22.12-45.15,14.85-6.97,21.82-21.21,21.82-43.03v-16.67c0-32.72-14.85-48.78-49.39-48.78H12.73v212.1h33.33v-86.35h11.52c15.15,0,21.81,7.27,21.81,26.97v33.33c0,17.27,1.21,20.6,3.03,26.06h33.94ZM62.12,37.01c11.82,0,16.97,6.67,16.97,21.82v20.91c0,16.97-7.58,22.42-20,22.42h-13.03V37.01h16.06Z" style="fill: #12ffff;"/>
</svg>