<?xml version="1.0" encoding="UTF-8"?>
<svg id="Layer_1" data-name="Layer 1" xmlns="http://www.w3.org/2000/svg" viewBox="0 0 114.18 226.08">
  <path d="m9.13,57.61c0,60.6,65.15,68.78,65.15,112.41,0,15.15-6.67,20.6-17.27,20.6s-17.27-5.45-17.27-20.6v-15.15H8.22v13.03c0,33.94,16.97,53.33,49.69,53.33s49.69-19.39,49.69-53.33c0-60.6-65.14-68.78-65.14-112.41,0-15.15,6.06-20.91,16.67-20.91s16.66,5.76,16.66,20.91v8.79h31.51v-6.67c0-33.94-16.66-53.33-49.09-53.33S9.13,23.67,9.13,57.61Z" style="fill: #12ffff;"/>
</svg>